HIERARCHY
ROOT Hips
{
  OFFSET 0 0 0
  CHANNELS 6 Xposition Yposition Zposition Zrotation Yrotation Xrotation
  JOINT LeftThigh
  {
    OFFSET 8.409438 0 -5.917753
    CHANNELS 3 Zrotation Yrotation Xrotation
    JOINT LeftLeg
    {
      OFFSET 0 0 -42.358652
      CHANNELS 3 Zrotation Yrotation Xrotation
      JOINT LeftFoot
      {
        OFFSET 0 0 -39.357303
        CHANNELS 3 Zrotation Yrotation Xrotation
      }
    }
  }
  JOINT RightThigh
  {
    OFFSET -8.409438 0 -5.917753
    CHANNELS 3 Zrotation Yrotation Xrotation
    JOINT RightLeg
    {
      OFFSET 0 0 -42.358652
      CHANNELS 3 Zrotation Yrotation Xrotation
      JOINT RightFoot
      {
        OFFSET 0 0 -39.357303
        CHANNELS 3 Zrotation Yrotation Xrotation
      }
    }
  }
  JOINT SpineLow
  {
    OFFSET 0 0 4.719101
    CHANNELS 3 Zrotation Yrotation Xrotation
    JOINT SpineMid
    {
      OFFSET 0 0 12.899191
      CHANNELS 3 Zrotation Yrotation Xrotation
      JOINT Chest
      {
        OFFSET 0 0 12.899191
        CHANNELS 3 Zrotation Yrotation Xrotation
        JOINT LeftShoulder
        {
          OFFSET 7.550562 1.41573 9.438202
          CHANNELS 3 Zrotation Yrotation Xrotation
          JOINT LeftArm
          {
            OFFSET 9.155056 0 4.247191
            CHANNELS 3 Zrotation Yrotation Xrotation
            JOINT LeftForearm
            {
              OFFSET 0 0 25.771955
              CHANNELS 3 Zrotation Yrotation Xrotation
              JOINT LeftHand
              {
                OFFSET 0 0 25.197169
                CHANNELS 3 Zrotation Yrotation Xrotation
              }
            }
          }
        }
        JOINT RightShoulder
        {
          OFFSET -7.550562 1.41573 9.438202
          CHANNELS 3 Zrotation Yrotation Xrotation
          JOINT RightArm
          {
            OFFSET -9.155056 0 4.247191
            CHANNELS 3 Zrotation Yrotation Xrotation
            JOINT RightForearm
            {
              OFFSET 0 0 -25.771955
              CHANNELS 3 Zrotation Yrotation Xrotation
              JOINT RightHand
              {
                OFFSET 0 0 -25.197169
                CHANNELS 3 Zrotation Yrotation Xrotation
              }
            }
          }
        }
        JOINT Neck
        {
          OFFSET 0 0 15.101124
          CHANNELS 3 Zrotation Yrotation Xrotation
          JOINT Head
          {
            OFFSET 0 0 11.325843
            CHANNELS 3 Zrotation Yrotation Xrotation
            End Site
            {
              OFFSET 0 0 14.157303
            }
          }
        }
      }
    }
  }
}
MOTION
Frames: 14
Frame Time: 0.0
0.0  101.685394  0.0  1.063278  -3.094836  -120.090467  6.819443  -47.058805  -68.305775  26.132178  2.796104  -1.209638  -16.122869  -16.878155  7.221028  -4.826023  -6.0242  2.407003  13.702146  5.313213  33.099126  6.336671  2.465495  6.502658  -1.455098  1.146592  5.990576  -3.669423  3.469869  16.312482  -3.669423  3.469869  16.312483  0.159155  29.559768  17.958323  -152.36284  48.427169  -113.29429  -40.589291  -10.626331  105.492761  60.594603  -13.619872  -11.612731  20.237836  -9.657957  25.990771  96.850348  78.273895  61.389731  8.12763  6.810689  -137.317662  49.245837  4.993275  2.145289  1.836833  4.34098  3.733291  1.350462  3.267128  2.785587  
0.0  101.685394  0.0  1.398526  -3.372577  -120.511982  4.134882  -47.410294  -66.833017  32.945801  1.55746  -0.411774  -17.84198  -18.042291  8.314448  -5.490879  -5.008769  2.233507  13.381995  5.403622  33.994532  8.189181  1.7493  6.673551  -1.36488  1.269949  6.186057  -3.3825  3.791797  16.847966  -3.382501  3.791797  16.847967  -0.622288  28.757656  16.768233  -152.816779  47.449686  -113.777997  -40.708909  -9.919966  105.729509  59.853021  -12.81478  -11.359425  19.07365  -9.888162  24.789466  89.730252  77.891767  53.273704  9.231411  6.624144  -136.231628  48.84351  5.076901  2.856388  1.888306  4.131371  3.320699  1.393181  3.108926  2.476688  
0.0  101.685394  0.0  2.118796  -3.055647  -121.239109  9.839905  -43.89215  -71.723262  33.267548  2.133912  7.142967  -19.73615  -18.64373  7.360055  -5.275109  -3.680834  2.066948  12.31968  5.591739  35.129138  9.67446  1.172693  6.729685  -1.423309  1.546  6.380229  -3.45801  4.564613  17.366998  -3.45801  4.564613  17.366998  -0.766534  27.443532  15.740902  -153.52761  46.42122  -114.643767  -40.868751  -8.745527  106.148073  59.244664  -12.173704  -11.094476  18.365488  -10.333393  23.497644  82.141158  76.920064  44.799472  10.318113  6.565633  -135.048269  49.277108  4.894631  5.02257  2.194634  3.588141  2.723689  1.629466  2.700987  2.02923  
0.0  101.685394  0.0  2.489854  -2.123243  -121.132068  15.905449  -37.071742  -76.722945  29.304887  2.711726  15.769599  -20.317126  -18.746134  5.603553  -4.7395  -2.742571  1.121721  11.025393  5.159933  36.458863  9.910463  1.392785  6.597018  -1.679596  1.725639  6.346044  -4.110834  5.11637  17.24822  -4.110834  5.11637  17.248219  -0.454967  26.810898  15.492871  -153.936179  45.731822  -115.170217  -41.103317  -7.709663  106.561146  59.153246  -11.888755  -10.975515  18.318996  -10.180921  23.162584  72.690457  75.757569  34.851053  11.917126  6.409291  -133.928362  49.247016  5.023471  5.77089  2.744611  3.195158  2.240487  2.046233  2.406522  1.665608  
0.0  101.685394  0.0  1.766418  -0.961944  -120.92831  19.466874  -28.454323  -79.689961  20.361168  3.746626  22.932639  -18.155507  -18.067818  4.531532  -4.601724  -3.078542  0.520956  10.083597  4.494368  37.470863  9.072081  2.096676  6.473628  -2.062786  1.713963  6.201993  -5.167195  5.173116  16.823375  -5.167195  5.173116  16.823375  0.024016  27.043297  16.186893  -154.033179  46.403841  -114.654558  -42.261094  -7.90652  106.380642  59.525692  -11.920544  -11.151657  18.632478  -9.81409  23.686716  63.781478  74.211444  25.677247  13.842989  6.052461  -132.861149  49.198311  5.209819  6.377128  3.550339  2.950907  2.131736  2.651903  2.225682  1.581356  
0.0  101.685394  0.0  0.419391  0.14428  -120.915358  22.402631  -21.666924  -82.508354  12.19301  7.110236  30.584402  -14.897302  -17.756403  3.838468  -5.034562  -4.453579  0.392596  9.779356  4.307311  38.065504  7.845947  2.764631  6.464764  -2.480958  1.569288  6.071972  -6.349967  4.874168  16.443061  -6.349967  4.874168  16.443062  0.510241  28.01521  16.800635  -153.766137  47.20393  -114.223948  -42.902104  -8.979455  106.421789  60.018242  -12.096883  -11.640508  19.229241  -9.242621  24.618488  56.09038  72.527098  17.959963  15.980621  5.535009  -131.849336  49.154181  5.496999  6.987369  4.538405  2.985045  2.301573  3.39184  2.256055  1.703716  
0.0  101.685394  0.0  -1.008167  1.220883  -120.95528  24.43156  -16.004404  -85.34762  4.992634  12.036318  38.113656  -10.556415  -17.718408  3.545137  -6.164915  -6.084259  0.53888  10.110684  4.518442  38.453714  6.693133  3.304498  6.309428  -2.889243  1.340448  5.896348  -7.527474  4.334837  15.951157  -7.527474  4.334836  15.951157  1.16265  29.515193  17.491101  -153.919654  48.491757  -114.119447  -43.534474  -10.834736  106.275117  60.396999  -12.416301  -12.094655  19.716832  -8.395115  26.219171  49.554326  70.853972  11.486443  17.738918  5.009123  -130.650515  49.097962  5.837556  7.496904  5.521801  3.397255  2.970783  4.123723  2.575093  2.19692  
0.0  101.685394  0.0  -1.955565  1.900717  -120.902  24.597557  -12.033758  -85.126732  -0.915691  16.053518  42.480164  -6.130322  -17.522073  4.001196  -7.389918  -7.18617  0.71786  10.698024  4.881712  38.715154  6.45465  3.640076  6.105558  -3.045803  1.193924  5.695427  -8.000621  3.951358  15.405704  -8.000621  3.951358  15.405703  1.275201  30.729948  18.377768  -153.943617  50.021098  -113.760807  -43.900298  -12.785485  105.878917  60.587966  -12.865986  -12.059884  19.372313  -8.174997  27.989428  43.873604  69.225892  5.944064  18.71969  4.77356  -129.229774  49.105873  6.105398  7.889488  5.972698  3.482163  3.817377  4.456579  2.649336  2.828403  
0.0  101.685394  0.0  -2.329603  2.049752  -120.834353  26.003425  -10.075877  -83.381434  -2.60519  18.493683  46.561532  -6.006651  -17.086762  3.924525  -8.088855  -7.830925  0.705149  11.531274  5.030613  39.098765  6.435269  3.79237  5.938457  -3.072232  1.132712  5.605424  -8.092003  3.780736  15.164484  -8.092003  3.780736  15.164484  1.301485  31.932115  18.701628  -153.480994  51.613375  -112.774939  -43.954636  -14.076289  105.316652  60.592706  -13.160806  -11.457908  19.014349  -8.064015  29.118008  38.946573  67.650058  1.212041  18.962778  5.010597  -127.623293  49.134824  6.265071  8.106408  6.291724  3.432181  4.161503  4.694247  2.617434  3.08521  
0.0  101.685394  0.0  -2.205552  1.707981  -120.942125  26.479477  -9.785291  -82.203413  -2.122781  18.269667  52.508296  -6.921409  -15.956757  3.089945  -7.694901  -8.201138  0.634979  11.846699  5.235823  39.463682  6.598892  3.765715  5.922661  -3.115608  1.117719  5.548147  -8.21695  3.742982  15.006865  -8.216951  3.742982  15.006866  2.274354  33.093856  19.142665  -152.994175  52.653085  -111.597217  -43.741181  -14.46206  104.737827  60.291986  -13.089608  -10.446029  19.286154  -7.609945  30.083554  35.075047  65.999903  -2.453604  18.754626  5.56014  -125.869787  49.235485  6.304141  8.253692  6.999107  3.629389  4.387136  5.221813  2.772865  3.248142  
0.0  101.685394  0.0  -1.775483  1.092402  -121.090905  27.594217  -11.457607  -82.488777  -0.103465  18.523405  59.928674  -6.6018  -14.393595  1.762367  -6.355853  -8.320001  0.636793  11.489541  5.39388  39.608439  6.628665  3.715901  5.962814  -3.157345  1.185562  5.720888  -8.304152  3.957459  15.468745  -8.304152  3.957459  15.468745  2.829547  33.497327  17.891672  -152.853128  53.202258  -110.772867  -43.483201  -14.066667  104.229013  59.728074  -12.725115  -9.176631  20.160103  -6.944128  29.366589  32.126176  64.234742  -5.220144  18.528542  6.151277  -124.143032  49.367375  6.303012  8.416335  7.902053  3.814781  3.747278  5.901197  2.910222  2.760575  
0.0  101.685394  0.0  -1.203474  0.595357  -121.169148  27.694645  -14.812061  -82.688402  3.911036  19.37388  66.382535  -4.814092  -13.29639  1.548859  -5.024333  -8.065793  0.784616  11.032434  5.431436  39.545605  6.677261  3.558545  5.918821  -3.078133  1.274351  5.908614  -8.055508  4.202077  15.977765  -8.055508  4.202077  15.977766  2.501135  33.298905  16.340994  -153.319292  53.524834  -110.678495  -43.274081  -13.295628  103.825393  59.160376  -12.231032  -8.0305  20.137905  -6.425302  28.335089  30.125968  62.48799  -7.23522  18.6518  6.436541  -122.540574  49.460061  6.339715  8.674977  8.338112  3.86536  3.015205  6.232299  2.940872  2.208222  
0.0  101.685394  0.0  -0.606885  0.53529  -121.031832  26.091711  -19.040754  -82.183004  8.899282  19.289238  72.23518  -2.508453  -11.892387  1.335495  -4.407378  -7.475126  0.863154  10.87296  5.242596  39.340811  6.790582  3.58006  5.911651  -2.894651  1.421422  5.91512  -7.522021  4.557754  15.994542  -7.522021  4.557754  15.994541  1.951518  32.337964  16.070706  -154.311175  53.70705  -111.214943  -43.161957  -12.499365  103.581367  58.816334  -11.812991  -7.192542  19.05932  -6.743329  27.959659  29.149268  60.793473  -8.40148  19.231302  6.265911  -121.097288  49.453139  6.466793  9.081623  8.313173  3.51188  2.8349  6.216781  2.673112  2.078138  
0.0  101.685394  0.0  -0.130224  0.741601  -120.681906  23.936688  -23.020318  -81.122488  13.847082  18.999634  77.682991  -0.258874  -10.473964  1.070652  -4.429763  -6.687981  0.811291  11.029231  4.867372  38.87087  6.729383  3.527308  5.944341  -2.748997  1.554022  5.819557  -7.102819  4.872731  15.732692  -7.102819  4.872731  15.732693  1.664323  31.163871  16.402758  -155.816701  53.778678  -112.26735  -43.185911  -11.783543  103.471578  58.852489  -11.5683  -6.51947  17.908822  -7.174766  27.974576  28.707178  59.216439  -9.176578  20.11067  5.707835  -119.811433  49.371036  6.656815  9.602281  8.250234  3.121456  2.927714  6.17135  2.381183  2.153529  
